<svg width="50" height="50" viewBox="0 0 50 50" fill="none" xmlns="http://www.w3.org/2000/svg">
<g clip-path="url(#clip0)">
<path d="M29.0075 23.5823L23.3925 20.9623C22.9025 20.7348 22.5 20.9898 22.5 21.5323V26.4673C22.5 27.0098 22.9025 27.2648 23.3925 27.0373L29.005 24.4173C29.4975 24.1873 29.4975 23.8123 29.0075 23.5823ZM25 -0.000244141C11.745 -0.000244141 1.00003 10.7448 1.00003 23.9998C1.00003 37.2548 11.745 47.9998 25 47.9998C38.255 47.9998 49 37.2548 49 23.9998C49 10.7448 38.255 -0.000244141 25 -0.000244141ZM25 33.7498C12.715 33.7498 12.5 32.6423 12.5 23.9998C12.5 15.3573 12.715 14.2498 25 14.2498C37.285 14.2498 37.5 15.3573 37.5 23.9998C37.5 32.6423 37.285 33.7498 25 33.7498Z" fill="#F2F2F2"/>
</g>
<defs>
<clipPath id="clip0">
<rect width="50" height="50" fill="white"/>
</clipPath>
</defs>
</svg>
