<svg width="100" height="100" viewBox="0 0 100 100" fill="none" xmlns="http://www.w3.org/2000/svg">
<path d="M23.184 13.2V30H20.616L11.352 18.624V30H8.256V13.2H10.824L20.088 24.576V13.2H23.184ZM39.4457 23.664C39.4457 23.872 39.4297 24.168 39.3977 24.552H29.3417C29.5177 25.496 29.9737 26.248 30.7097 26.808C31.4617 27.352 32.3897 27.624 33.4937 27.624C34.9017 27.624 36.0617 27.16 36.9737 26.232L38.5817 28.08C38.0057 28.768 37.2777 29.288 36.3977 29.64C35.5177 29.992 34.5257 30.168 33.4217 30.168C32.0137 30.168 30.7737 29.888 29.7017 29.328C28.6297 28.768 27.7977 27.992 27.2057 27C26.6297 25.992 26.3417 24.856 26.3417 23.592C26.3417 22.344 26.6217 21.224 27.1817 20.232C27.7577 19.224 28.5497 18.44 29.5577 17.88C30.5657 17.32 31.7017 17.04 32.9657 17.04C34.2137 17.04 35.3257 17.32 36.3017 17.88C37.2937 18.424 38.0617 19.2 38.6057 20.208C39.1657 21.2 39.4457 22.352 39.4457 23.664ZM32.9657 19.44C32.0057 19.44 31.1897 19.728 30.5177 20.304C29.8617 20.864 29.4617 21.616 29.3177 22.56H36.5897C36.4617 21.632 36.0697 20.88 35.4137 20.304C34.7577 19.728 33.9417 19.44 32.9657 19.44ZM54.093 17.184L48.597 30H45.501L40.005 17.184H43.125L47.109 26.688L51.213 17.184H54.093ZM67.6644 23.664C67.6644 23.872 67.6484 24.168 67.6164 24.552H57.5604C57.7364 25.496 58.1924 26.248 58.9284 26.808C59.6804 27.352 60.6084 27.624 61.7124 27.624C63.1204 27.624 64.2804 27.16 65.1924 26.232L66.8004 28.08C66.2244 28.768 65.4964 29.288 64.6164 29.64C63.7364 29.992 62.7444 30.168 61.6404 30.168C60.2324 30.168 58.9924 29.888 57.9204 29.328C56.8484 28.768 56.0164 27.992 55.4244 27C54.8484 25.992 54.5604 24.856 54.5604 23.592C54.5604 22.344 54.8404 21.224 55.4004 20.232C55.9764 19.224 56.7684 18.44 57.7764 17.88C58.7844 17.32 59.9204 17.04 61.1844 17.04C62.4324 17.04 63.5444 17.32 64.5204 17.88C65.5124 18.424 66.2804 19.2 66.8244 20.208C67.3844 21.2 67.6644 22.352 67.6644 23.664ZM61.1844 19.44C60.2244 19.44 59.4084 19.728 58.7364 20.304C58.0804 20.864 57.6804 21.616 57.5364 22.56H64.8084C64.6804 21.632 64.2884 20.88 63.6324 20.304C62.9764 19.728 62.1604 19.44 61.1844 19.44ZM73.4021 19.056C74.2661 17.712 75.7861 17.04 77.9621 17.04V19.896C77.7061 19.848 77.4741 19.824 77.2661 19.824C76.0981 19.824 75.1861 20.168 74.5301 20.856C73.8741 21.528 73.5461 22.504 73.5461 23.784V30H70.5461V17.184H73.4021V19.056ZM23.184 42.2V59H20.616L11.352 47.624V59H8.256V42.2H10.824L20.088 53.576V42.2H23.184ZM33.1577 59.168C31.8617 59.168 30.6937 58.888 29.6537 58.328C28.6137 57.768 27.7977 56.992 27.2057 56C26.6297 54.992 26.3417 53.856 26.3417 52.592C26.3417 51.328 26.6297 50.2 27.2057 49.208C27.7977 48.216 28.6137 47.44 29.6537 46.88C30.6937 46.32 31.8617 46.04 33.1577 46.04C34.4697 46.04 35.6457 46.32 36.6857 46.88C37.7257 47.44 38.5337 48.216 39.1097 49.208C39.7017 50.2 39.9977 51.328 39.9977 52.592C39.9977 53.856 39.7017 54.992 39.1097 56C38.5337 56.992 37.7257 57.768 36.6857 58.328C35.6457 58.888 34.4697 59.168 33.1577 59.168ZM33.1577 56.6C34.2617 56.6 35.1737 56.232 35.8937 55.496C36.6137 54.76 36.9737 53.792 36.9737 52.592C36.9737 51.392 36.6137 50.424 35.8937 49.688C35.1737 48.952 34.2617 48.584 33.1577 48.584C32.0537 48.584 31.1417 48.952 30.4217 49.688C29.7177 50.424 29.3657 51.392 29.3657 52.592C29.3657 53.792 29.7177 54.76 30.4217 55.496C31.1417 56.232 32.0537 56.6 33.1577 56.6ZM50.5704 58.304C50.2184 58.592 49.7864 58.808 49.2744 58.952C48.7784 59.096 48.2504 59.168 47.6904 59.168C46.2824 59.168 45.1944 58.8 44.4264 58.064C43.6584 57.328 43.2744 56.256 43.2744 54.848V48.68H41.1624V46.28H43.2744V43.352H46.2744V46.28H49.7064V48.68H46.2744V54.776C46.2744 55.4 46.4264 55.88 46.7304 56.216C47.0344 56.536 47.4744 56.696 48.0504 56.696C48.7224 56.696 49.2824 56.52 49.7304 56.168L50.5704 58.304ZM16.032 88.24C14.336 88.24 12.8 87.872 11.424 87.136C10.064 86.384 8.992 85.352 8.208 84.04C7.44 82.728 7.056 81.248 7.056 79.6C7.056 77.952 7.448 76.472 8.232 75.16C9.016 73.848 10.088 72.824 11.448 72.088C12.824 71.336 14.36 70.96 16.056 70.96C17.432 70.96 18.688 71.2 19.824 71.68C20.96 72.16 21.92 72.856 22.704 73.768L20.688 75.664C19.472 74.352 17.976 73.696 16.2 73.696C15.048 73.696 14.016 73.952 13.104 74.464C12.192 74.96 11.48 75.656 10.968 76.552C10.456 77.448 10.2 78.464 10.2 79.6C10.2 80.736 10.456 81.752 10.968 82.648C11.48 83.544 12.192 84.248 13.104 84.76C14.016 85.256 15.048 85.504 16.2 85.504C17.976 85.504 19.472 84.84 20.688 83.512L22.704 85.432C21.92 86.344 20.952 87.04 19.8 87.52C18.664 88 17.408 88.24 16.032 88.24ZM30.6968 88.168C29.4008 88.168 28.2328 87.888 27.1928 87.328C26.1528 86.768 25.3368 85.992 24.7448 85C24.1688 83.992 23.8808 82.856 23.8808 81.592C23.8808 80.328 24.1688 79.2 24.7448 78.208C25.3368 77.216 26.1528 76.44 27.1928 75.88C28.2328 75.32 29.4008 75.04 30.6968 75.04C32.0088 75.04 33.1848 75.32 34.2248 75.88C35.2648 76.44 36.0728 77.216 36.6488 78.208C37.2408 79.2 37.5368 80.328 37.5368 81.592C37.5368 82.856 37.2408 83.992 36.6488 85C36.0728 85.992 35.2648 86.768 34.2248 87.328C33.1848 87.888 32.0088 88.168 30.6968 88.168ZM30.6968 85.6C31.8008 85.6 32.7128 85.232 33.4328 84.496C34.1528 83.76 34.5128 82.792 34.5128 81.592C34.5128 80.392 34.1528 79.424 33.4328 78.688C32.7128 77.952 31.8008 77.584 30.6968 77.584C29.5928 77.584 28.6808 77.952 27.9608 78.688C27.2568 79.424 26.9048 80.392 26.9048 81.592C26.9048 82.792 27.2568 83.76 27.9608 84.496C28.6808 85.232 29.5928 85.6 30.6968 85.6ZM52.9575 70.192V88H50.0775V86.344C49.5815 86.952 48.9655 87.408 48.2295 87.712C47.5095 88.016 46.7095 88.168 45.8295 88.168C44.5975 88.168 43.4855 87.896 42.4935 87.352C41.5175 86.808 40.7495 86.04 40.1895 85.048C39.6295 84.04 39.3495 82.888 39.3495 81.592C39.3495 80.296 39.6295 79.152 40.1895 78.16C40.7495 77.168 41.5175 76.4 42.4935 75.856C43.4855 75.312 44.5975 75.04 45.8295 75.04C46.6775 75.04 47.4535 75.184 48.1575 75.472C48.8615 75.76 49.4615 76.192 49.9575 76.768V70.192H52.9575ZM46.1895 85.6C46.9095 85.6 47.5575 85.44 48.1335 85.12C48.7095 84.784 49.1655 84.312 49.5015 83.704C49.8375 83.096 50.0055 82.392 50.0055 81.592C50.0055 80.792 49.8375 80.088 49.5015 79.48C49.1655 78.872 48.7095 78.408 48.1335 78.088C47.5575 77.752 46.9095 77.584 46.1895 77.584C45.4695 77.584 44.8215 77.752 44.2455 78.088C43.6695 78.408 43.2135 78.872 42.8775 79.48C42.5415 80.088 42.3735 80.792 42.3735 81.592C42.3735 82.392 42.5415 83.096 42.8775 83.704C43.2135 84.312 43.6695 84.784 44.2455 85.12C44.8215 85.44 45.4695 85.6 46.1895 85.6ZM56.8821 75.184H59.8821V88H56.8821V75.184ZM58.3941 73.072C57.8501 73.072 57.3941 72.904 57.0261 72.568C56.6581 72.216 56.4741 71.784 56.4741 71.272C56.4741 70.76 56.6581 70.336 57.0261 70C57.3941 69.648 57.8501 69.472 58.3941 69.472C58.9381 69.472 59.3941 69.64 59.7621 69.976C60.1301 70.296 60.3141 70.704 60.3141 71.2C60.3141 71.728 60.1301 72.176 59.7621 72.544C59.4101 72.896 58.9541 73.072 58.3941 73.072ZM71.0916 75.04C72.7076 75.04 74.0036 75.512 74.9796 76.456C75.9556 77.4 76.4436 78.8 76.4436 80.656V88H73.4436V81.04C73.4436 79.92 73.1796 79.08 72.6516 78.52C72.1236 77.944 71.3716 77.656 70.3956 77.656C69.2916 77.656 68.4196 77.992 67.7796 78.664C67.1396 79.32 66.8196 80.272 66.8196 81.52V88H63.8196V75.184H66.6756V76.84C67.1716 76.248 67.7956 75.8 68.5476 75.496C69.2996 75.192 70.1476 75.04 71.0916 75.04ZM93.0864 75.184V86.056C93.0864 90.568 90.7824 92.824 86.1744 92.824C84.9424 92.824 83.7744 92.664 82.6704 92.344C81.5664 92.04 80.6544 91.592 79.9344 91L81.2784 88.744C81.8384 89.208 82.5424 89.576 83.3904 89.848C84.2544 90.136 85.1264 90.28 86.0064 90.28C87.4144 90.28 88.4464 89.96 89.1024 89.32C89.7584 88.68 90.0864 87.704 90.0864 86.392V85.72C89.5744 86.28 88.9504 86.704 88.2144 86.992C87.4784 87.28 86.6704 87.424 85.7904 87.424C84.5744 87.424 83.4704 87.168 82.4784 86.656C81.5024 86.128 80.7264 85.392 80.1504 84.448C79.5904 83.504 79.3104 82.424 79.3104 81.208C79.3104 79.992 79.5904 78.92 80.1504 77.992C80.7264 77.048 81.5024 76.32 82.4784 75.808C83.4704 75.296 84.5744 75.04 85.7904 75.04C86.7184 75.04 87.5584 75.192 88.3104 75.496C89.0784 75.8 89.7184 76.264 90.2304 76.888V75.184H93.0864ZM86.2464 84.88C87.3824 84.88 88.3104 84.544 89.0304 83.872C89.7664 83.184 90.1344 82.296 90.1344 81.208C90.1344 80.136 89.7664 79.264 89.0304 78.592C88.3104 77.92 87.3824 77.584 86.2464 77.584C85.0944 77.584 84.1504 77.92 83.4144 78.592C82.6944 79.264 82.3344 80.136 82.3344 81.208C82.3344 82.296 82.6944 83.184 83.4144 83.872C84.1504 84.544 85.0944 84.88 86.2464 84.88Z" fill="white"/>
<rect x="1.5" y="1.5" width="97" height="97" stroke="white" stroke-width="3"/>
</svg>
